<mxfile host="app.diagrams.net" modified="2024-05-16T10:33:14.831Z" agent="Mozilla/5.0 (Windows NT 10.0; Win64; x64) AppleWebKit/537.36 (KHTML, like Gecko) Chrome/124.0.0.0 Safari/537.36" etag="-E3EcrDMWHjFWcjZbpQ4" version="24.3.1" type="google">
  <diagram name="Page-1" id="3AW651xyoHBq1aIa7Rv6">
    <mxGraphModel grid="1" page="1" gridSize="10" guides="1" tooltips="1" connect="1" arrows="1" fold="1" pageScale="1" pageWidth="827" pageHeight="1169" math="0" shadow="0">
      <root>
        <mxCell id="0" />
        <mxCell id="1" parent="0" />
        <mxCell id="raqO8b-Yunnj6KW7OPB1-3" value="" style="rounded=0;whiteSpace=wrap;html=1;" vertex="1" parent="1">
          <mxGeometry x="-410" y="130" width="290" height="330" as="geometry" />
        </mxCell>
        <mxCell id="raqO8b-Yunnj6KW7OPB1-4" value="Bartender" style="shape=umlActor;verticalLabelPosition=bottom;verticalAlign=top;html=1;outlineConnect=0;" vertex="1" parent="1">
          <mxGeometry x="-500" y="230" width="30" height="60" as="geometry" />
        </mxCell>
        <mxCell id="raqO8b-Yunnj6KW7OPB1-6" value="-Takes drink order from Customer" style="ellipse;whiteSpace=wrap;html=1;" vertex="1" parent="1">
          <mxGeometry x="-370" y="170" width="90" height="60" as="geometry" />
        </mxCell>
        <mxCell id="raqO8b-Yunnj6KW7OPB1-8" value="Customer" style="shape=umlActor;verticalLabelPosition=bottom;verticalAlign=top;html=1;outlineConnect=0;" vertex="1" parent="1">
          <mxGeometry x="-80" y="260" width="30" height="60" as="geometry" />
        </mxCell>
        <mxCell id="raqO8b-Yunnj6KW7OPB1-12" value="Server" style="shape=umlActor;verticalLabelPosition=bottom;verticalAlign=top;html=1;outlineConnect=0;" vertex="1" parent="1">
          <mxGeometry x="-500" y="360" width="30" height="60" as="geometry" />
        </mxCell>
        <mxCell id="raqO8b-Yunnj6KW7OPB1-15" value="Orders drink" style="ellipse;whiteSpace=wrap;html=1;" vertex="1" parent="1">
          <mxGeometry x="-220" y="265" width="70" height="50" as="geometry" />
        </mxCell>
        <mxCell id="raqO8b-Yunnj6KW7OPB1-17" value="brings drink to Customer" style="ellipse;whiteSpace=wrap;html=1;" vertex="1" parent="1">
          <mxGeometry x="-367.5" y="380" width="85" height="50" as="geometry" />
        </mxCell>
        <mxCell id="a67Z1hKK47zuZ2H1h1ah-1" value="Drinks are made" style="ellipse;whiteSpace=wrap;html=1;" vertex="1" parent="1">
          <mxGeometry x="-370" y="245" width="90" height="50" as="geometry" />
        </mxCell>
        <mxCell id="a67Z1hKK47zuZ2H1h1ah-2" value="-takes drink from Bartender" style="ellipse;whiteSpace=wrap;html=1;" vertex="1" parent="1">
          <mxGeometry x="-370" y="320" width="90" height="50" as="geometry" />
        </mxCell>
        <mxCell id="a67Z1hKK47zuZ2H1h1ah-3" value="" style="endArrow=none;html=1;rounded=0;" edge="1" parent="1" target="raqO8b-Yunnj6KW7OPB1-6">
          <mxGeometry width="50" height="50" relative="1" as="geometry">
            <mxPoint x="-470" y="265" as="sourcePoint" />
            <mxPoint x="-420" y="215" as="targetPoint" />
          </mxGeometry>
        </mxCell>
        <mxCell id="a67Z1hKK47zuZ2H1h1ah-4" value="" style="endArrow=none;html=1;rounded=0;" edge="1" parent="1" target="a67Z1hKK47zuZ2H1h1ah-1">
          <mxGeometry width="50" height="50" relative="1" as="geometry">
            <mxPoint x="-468" y="266" as="sourcePoint" />
            <mxPoint x="-358" y="205" as="targetPoint" />
          </mxGeometry>
        </mxCell>
        <mxCell id="a67Z1hKK47zuZ2H1h1ah-5" value="" style="endArrow=none;html=1;rounded=0;" edge="1" parent="1" target="a67Z1hKK47zuZ2H1h1ah-2">
          <mxGeometry width="50" height="50" relative="1" as="geometry">
            <mxPoint x="-470" y="391" as="sourcePoint" />
            <mxPoint x="-360" y="330" as="targetPoint" />
          </mxGeometry>
        </mxCell>
        <mxCell id="a67Z1hKK47zuZ2H1h1ah-6" value="" style="endArrow=none;html=1;rounded=0;" edge="1" parent="1" target="raqO8b-Yunnj6KW7OPB1-17">
          <mxGeometry width="50" height="50" relative="1" as="geometry">
            <mxPoint x="-470" y="391" as="sourcePoint" />
            <mxPoint x="-360" y="330" as="targetPoint" />
          </mxGeometry>
        </mxCell>
        <mxCell id="a67Z1hKK47zuZ2H1h1ah-7" value="" style="endArrow=none;html=1;rounded=0;" edge="1" parent="1" source="raqO8b-Yunnj6KW7OPB1-8" target="raqO8b-Yunnj6KW7OPB1-15">
          <mxGeometry width="50" height="50" relative="1" as="geometry">
            <mxPoint x="-430" y="280" as="sourcePoint" />
            <mxPoint x="-320" y="219" as="targetPoint" />
          </mxGeometry>
        </mxCell>
        <mxCell id="XYOYaXdrmbgXuwDNVf-c-1" value="Bar" style="text;html=1;align=center;verticalAlign=middle;whiteSpace=wrap;rounded=0;" vertex="1" parent="1">
          <mxGeometry x="-300" y="130" width="60" height="30" as="geometry" />
        </mxCell>
      </root>
    </mxGraphModel>
  </diagram>
</mxfile>
